<svg width="138" height="36" viewBox="0 0 138 36" fill="none" xmlns="http://www.w3.org/2000/svg">
<g clip-path="url(#clip0)">
<path d="M14.26 9.28998V12.59L3.95 17.25L14.26 21.91V25.22L0 18.54V15.96L14.26 9.28998Z" fill="#2C2B2A"/>
<path d="M29.57 24.06C29.33 24.18 27.35 25.17 24.99 25.17C20.77 25.17 17.62 22.22 17.62 17.36C17.62 13.3 20.08 9.58002 24.99 9.58002C26.58 9.58002 27.93 9.94002 29.57 10.72V15.29C28.58 14.33 27.32 13.79 26.13 13.79C24.09 13.79 23.04 15.35 23.04 17.4C23.04 19.47 24.27 20.92 26.34 20.92C27.15 20.92 28.26 20.65 29.58 19.48V24.06H29.57Z" fill="#2C2B2A"/>
<path d="M31.37 17.36C31.37 13.27 34.04 9.58002 40.03 9.58002C46.02 9.58002 48.69 13.28 48.69 17.36C48.69 21.51 46.02 25.17 40.03 25.17C34.03 25.18 31.37 21.51 31.37 17.36ZM43.26 17.36C43.26 14.99 42.12 13.36 40.02 13.36C37.92 13.36 36.78 14.98 36.78 17.36C36.78 19.76 37.92 21.39 40.02 21.39C42.12 21.39 43.26 19.77 43.26 17.36Z" fill="#2C2B2A"/>
<path d="M61.98 24.64V22.93C60.96 24.25 59.37 25.18 57.25 25.18C53.51 25.18 50.48 22.26 50.48 17.37C50.48 13.67 52.43 9.58998 57.25 9.58998C59.17 9.58998 60.46 10.13 61.77 11.63V2.53998H67.01V24.63H61.98V24.64ZM62.19 17.36C62.19 15.26 60.9 13.9 59.04 13.9C56.82 13.9 55.89 15.64 55.89 17.36C55.89 19.1 56.82 20.85 59.04 20.85C60.91 20.85 62.19 19.5 62.19 17.36Z" fill="#2C2B2A"/>
<path d="M85.41 20.22C83.73 25.18 78.88 25.18 77.62 25.18C73.13 25.18 69.59 22.44 69.59 17.37C69.59 12.77 72.62 9.59003 77.56 9.59003C84.45 9.59003 85.65 15.3 85.53 18.55H74.51C74.45 20.38 75.53 22.04 77.63 22.04C79.07 22.04 80.12 21.41 80.39 20.24H85.41V20.22ZM80.5 15.68C80.41 14.18 79.45 12.73 77.56 12.73C75.79 12.73 74.71 14.11 74.62 15.68H80.5Z" fill="#2C2B2A"/>
<path d="M101.7 0.619995L90.77 29.03H87.62L98.56 0.619995" fill="#2C2B2A"/>
<path d="M103.65 3.59998H112.34C119.35 3.59998 119.59 8.94998 119.59 9.90998C119.59 13.88 117.16 15.53 115.19 16.22L121.06 24.64H113.96L109.53 17.7V24.64H103.66V3.59998H103.65ZM110.96 13.06C113.06 13.06 113.72 11.86 113.72 10.63C113.72 9.45998 113.06 8.22998 110.96 8.22998H109.52V13.07H110.96V13.06Z" fill="#2C2B2A"/>
<path d="M137.78 17.96L123.52 24.64V21.33L133.82 16.67L123.52 12.01V8.71002L137.78 15.38V17.96Z" fill="#2C2B2A"/>
</g>
<defs>
<clipPath id="clip0">
<rect width="137.78" height="35.79" fill="white"/>
</clipPath>
</defs>
</svg>
